# Blender 4.5.3 LTS
# www.blender.org
mtllib Untitled.mtl
o Icosphere
v -0.235241 0.724007 -0.700735
v 0.003618 -0.892291 0.523793
v -0.847501 -0.279175 0.523790
v -0.527408 0.719748 0.523791
v 0.521546 0.724008 0.523791
v 0.849739 -0.272290 0.523791
v 0.088470 0.272289 0.994276
v -0.088470 -0.272289 -0.994276
v -0.003618 -0.892291 -0.523793
v 0.847501 -0.279175 -0.523790
v 0.418908 -0.000000 -0.957649
v -0.525730 0.000000 -0.850652
v -0.849739 -0.272290 -0.523791
v -0.688189 0.499997 -0.525736
v 0.527408 0.719748 -0.523791
v 1.043889 0.000000 0.053589
v 0.000000 -1.000000 0.000000
v 0.587786 -0.809017 0.000000
v -0.951058 -0.309013 0.000000
v -0.587786 -0.809017 0.000000
v -0.587786 0.809017 0.000000
v -0.951058 0.309013 0.000000
v 0.587786 0.809017 0.000000
v 0.000000 1.000000 0.000000
v 0.162456 -0.499995 0.850654
v 0.525730 0.000000 0.850652
v -0.418907 0.000000 0.957649
vn -0.1523 0.2586 -0.9539
vn -0.0764 0.2714 -0.9594
vn -0.5212 0.7755 -0.3563
vn 0.8712 -0.4871 -0.0608
vn -0.3034 -0.9337 -0.1899
vn -0.9818 -0.0000 -0.1899
vn -0.2983 0.9180 -0.2614
vn 0.8619 0.4740 -0.1801
vn 0.4886 -0.6667 0.5628
vn -0.3933 -0.5459 0.7398
vn -0.7639 0.2448 0.5971
vn -0.0029 0.7227 0.6912
vn 0.7851 0.2586 0.5628
vn 0.4865 0.3618 0.7952
vn -0.3057 0.4573 0.8351
vn 0.0258 -0.1804 0.9833
vn -0.3114 -0.5307 0.7883
vn 0.2178 -0.1582 0.9631
vn 0.4953 -0.3598 0.7907
vn 0.8240 0.2714 0.4974
vn 0.8503 0.4918 0.1873
vn -0.0036 0.8832 0.4689
vn -0.3031 0.9330 0.1940
vn -0.8411 0.2695 0.4689
vn -0.9810 -0.0000 0.1940
vn -0.5162 -0.7166 0.4689
vn -0.3031 -0.9330 0.1939
vn 0.5220 -0.7124 0.4689
vn 0.8668 -0.4934 0.0721
vn 0.3034 0.9337 0.1899
vn 0.3031 0.9330 -0.1940
vn 0.0962 0.9147 -0.3925
vn -0.7943 0.5771 0.1899
vn -0.7947 0.5773 -0.1876
vn -0.9041 0.1882 -0.3837
vn -0.7943 -0.5771 0.1899
vn -0.7937 -0.5766 -0.1939
vn -0.5220 -0.7124 -0.4689
vn 0.3034 -0.9337 0.1899
vn 0.3031 -0.9330 -0.1939
vn 0.5162 -0.7166 -0.4689
vn 0.8614 0.2760 -0.4264
vn 0.2004 0.4834 -0.8521
vn -0.4857 0.3598 -0.7966
vn -0.7640 0.1582 -0.6255
vn -0.4889 -0.3678 -0.7910
vn -0.4272 -0.5829 -0.6912
vn 0.7639 0.2448 -0.5971
vn 0.3439 -0.5373 -0.7701
vn 0.3933 -0.5459 -0.7398
vt 0.727273 0.000000
vt 0.772727 0.078731
vt 0.659399 0.117562
vt 0.545455 0.000000
vt 0.613329 0.117562
vt 0.500000 0.078731
vt 0.727273 0.157461
vt 0.681818 0.236191
vt 0.318798 0.157461
vt 0.363637 0.236191
vt 0.227273 0.236191
vt 0.136980 0.157461
vt 0.136365 0.236191
vt 0.045455 0.236191
vt 0.864253 0.157461
vt 0.863636 0.236191
vt 0.772727 0.236191
vt 0.590909 0.236191
vt 0.500617 0.157461
vt 0.500000 0.236191
vt 0.135748 0.314921
vt 0.317566 0.314921
vt 0.227273 0.393651
vt 0.000000 0.314921
vt 0.045455 0.393651
vt 0.681202 0.314921
vt 0.863021 0.314921
vt 0.818182 0.393651
vt 0.499384 0.314921
vt 0.613329 0.432483
vt 0.409092 0.393651
vt 0.477581 0.432483
vt 0.681818 0.393651
vt 0.136365 0.393651
vt 0.090910 0.472382
vt 0.318182 0.393651
vt 0.272728 0.472382
vt 0.954545 0.236191
vt 1.000000 0.157461
vt 0.863636 0.078731
vt 0.932126 0.039899
vt 0.363637 0.078731
vt 0.158784 0.039899
vt 0.227273 0.078731
s 0
f 8/1/1 12/2/1 1/3/1
f 8/4/2 1/5/2 11/6/2
f 1/3/3 14/7/3 21/8/3
f 10/9/4 16/10/4 18/11/4
f 9/12/5 17/13/5 20/14/5
f 13/15/6 19/16/6 22/17/6
f 1/3/7 21/8/7 24/18/7
f 15/19/8 23/20/8 16/10/8
f 2/21/9 6/22/9 25/23/9
f 3/24/10 2/21/10 27/25/10
f 4/26/11 3/27/11 27/28/11
f 5/29/12 4/26/12 7/30/12
f 6/22/13 5/29/13 26/31/13
f 26/31/14 5/29/14 7/32/14
f 7/30/15 4/26/15 27/33/15
f 27/25/16 25/34/16 7/35/16
f 27/25/17 2/21/17 25/34/17
f 25/23/18 26/36/18 7/37/18
f 25/23/19 6/22/19 26/36/19
f 16/10/20 5/29/20 6/22/20
f 16/10/21 23/20/21 5/29/21
f 24/18/22 4/26/22 5/29/22
f 24/18/23 21/8/23 4/26/23
f 22/17/24 3/27/24 4/26/24
f 22/17/25 19/16/25 3/27/25
f 20/14/26 2/21/26 3/24/26
f 20/14/27 17/13/27 2/21/27
f 18/11/28 6/22/28 2/21/28
f 18/11/29 16/10/29 6/22/29
f 23/20/30 24/18/30 5/29/30
f 23/20/31 15/19/31 24/18/31
f 15/19/32 1/3/32 24/18/32
f 21/8/33 22/17/33 4/26/33
f 21/8/34 14/7/34 22/17/34
f 14/7/35 13/15/35 22/17/35
f 19/16/36 20/38/36 3/27/36
f 19/16/37 13/15/37 20/38/37
f 13/15/38 9/39/38 20/38/38
f 17/13/39 18/11/39 2/21/39
f 17/13/40 9/12/40 18/11/40
f 9/12/41 10/9/41 18/11/41
f 10/9/42 15/19/42 16/10/42
f 11/6/43 1/5/43 15/19/43
f 1/3/44 12/2/44 14/7/44
f 12/2/45 13/15/45 14/7/45
f 12/40/46 8/41/46 13/15/46
f 8/41/47 9/39/47 13/15/47
f 10/9/48 11/42/48 15/19/48
f 8/43/49 11/44/49 9/12/49
f 11/44/50 10/9/50 9/12/50
